<?xml version="1.0" encoding="UTF-8" standalone="no"?>
<svg
   xmlns:dc="http://purl.org/dc/elements/1.1/"
   xmlns:cc="http://creativecommons.org/ns#"
   xmlns:rdf="http://www.w3.org/1999/02/22-rdf-syntax-ns#"
   xmlns:svg="http://www.w3.org/2000/svg"
   xmlns="http://www.w3.org/2000/svg"
   xmlns:sodipodi="http://sodipodi.sourceforge.net/DTD/sodipodi-0.dtd"
   xmlns:inkscape="http://www.inkscape.org/namespaces/inkscape"
   version="1.1"
   x="0px"
   y="0px"
   viewBox="0 0 59.634243 62.085087"
   enable-background="new 0 0 100 100"
   xml:space="preserve"
   id="svg2"
   inkscape:version="0.91 r13725"
   sodipodi:docname="dimes.svg"
   width="59.634243"
   height="62.085087"><metadata
     id="metadata14"><rdf:RDF><cc:Work
         rdf:about=""><dc:format>image/svg+xml</dc:format><dc:type
           rdf:resource="http://purl.org/dc/dcmitype/StillImage" /><dc:title></dc:title></cc:Work></rdf:RDF></metadata><defs
     id="defs12"><filter
       inkscape:collect="always"
       style="color-interpolation-filters:sRGB"
       id="filter4197"
       x="-0.061384302"
       width="1.1227686"
       y="-0.058676757"
       height="1.1173536"><feGaussianBlur
         inkscape:collect="always"
         stdDeviation="1.3584746"
         id="feGaussianBlur4199" /></filter></defs><sodipodi:namedview
     pagecolor="#000000"
     bordercolor="#666666"
     borderopacity="1"
     objecttolerance="10"
     gridtolerance="10"
     guidetolerance="10"
     inkscape:pageopacity="1"
     inkscape:pageshadow="2"
     inkscape:window-width="842"
     inkscape:window-height="509"
     id="namedview10"
     showgrid="false"
     fit-margin-top="0"
     fit-margin-left="0"
     fit-margin-right="0"
     fit-margin-bottom="0"
     inkscape:zoom="1.888"
     inkscape:cx="79.510163"
     inkscape:cy="57.157793"
     inkscape:window-x="314"
     inkscape:window-y="54"
     inkscape:window-maximized="0"
     inkscape:current-layer="svg2"
     inkscape:snap-bbox="true"
     inkscape:snap-bbox-midpoints="true" /><path
     d="m 3.260339,24.667756 c 0,2.134813 3.216837,3.439419 7.220013,4.210324 l 0,5.692833 c 0,2.668514 4.789513,4.032421 10.007938,4.625424 l 0,2.846416 c -4.074661,0.770904 -7.362983,2.075512 -7.362983,4.269624 l 0,7.412541 c 0,4.032426 11.294676,5.099826 17.942806,5.099826 6.64813,0 17.9428,-1.0674 17.9428,-5.099826 l 0,-5.574232 c 4.07466,-0.770904 7.36299,-2.07551 7.36299,-4.269622 l 0,-7.353242 c 0,-2.668514 -4.78952,-4.032422 -10.00794,-4.625424 l 0,-4.684728 c 0,-2.134812 -3.21684,-3.439419 -7.22002,-4.210323 l 0,-2.727815 c 4.50358,-0.711605 8.36378,-2.075511 8.36378,-4.388224 l 0,-7.4718409 c 0.0715,-4.032422 -11.22319,-5.159128 -17.9428,-5.159128 -6.71962,0 -17.942806,1.126706 -17.942806,5.159128 l 0,4.3882239 c -4.503573,0.711604 -8.363778,2.075512 -8.363778,4.388224 l 0,7.471841 z m 7.72041,-2.965016 c 0,0 0,0.0593 0,0 l 0,4.684726 C 10.408866,26.268865 9.908469,26.150265 9.408072,26.031664 l 0,-4.744026 c 0,0 0,0 0,0 l 0,-0.05929 c 0.500397,0.1186 1.000794,0.237201 1.572677,0.2965 l 0,0.177903 z m 4.074661,9.547354 0,0.889505 0,3.380117 c -0.929309,-0.355801 -1.501191,-0.711602 -1.572677,-0.889504 l 0,-4.328924 c 0.500397,0.177901 1.000794,0.355802 1.572677,0.533704 l 0,0.415102 z m -2.501985,-4.566127 0,-4.862626 c 0.500397,0.05929 1.072279,0.118601 1.572676,0.1779 l 0,4.921928 c -0.500397,-0.1186 -1.072279,-0.177901 -1.572676,-0.237202 z m 3.216837,-4.506824 0,0 c 0.500397,0 1.000794,0.05929 1.572676,0.05929 l 0,0.355801 0,0.237202 0,4.328923 c -0.500396,-0.05929 -1.072279,-0.05929 -1.572676,-0.118597 l 0,-4.862627 c 0,0 0,0 0,0 z m 2.430499,9.488053 c 0,0 0,0 0,0 l 0,4.684726 C 17.62888,36.231321 17.128483,36.112721 16.628086,35.99412 l 0,-4.744026 c 0,0 0,0 0,0 l 0,-0.05929 c 0.500397,0.1186 1.000794,0.237201 1.572675,0.2965 l 0,0.177903 z m -0.428911,-19.213308 0,0 c 0.500397,0.0593 1.000794,0.177902 1.572676,0.237201 l 0,0.177903 c 0,0 0,0 0,0 l 0,4.684724 c -0.571882,-0.1186 -1.072279,-0.2372 -1.572676,-0.355801 l 0,-4.744027 c 0,0 0,0 0,0 z m 1.072279,10.140357 0,-0.296502 c 0.571882,0 1.072279,0.05929 1.572676,0.05929 0,0 0,0 0,0.05929 l 0,0.237202 c 0,0 0,0.05929 0,0.05929 l 0,4.566124 c -0.571882,0 -1.072279,0 -1.572676,-0.05929 l 0,-4.625425 c 0,0 0,0 0,0 z m 0.929309,13.994879 0,-4.862627 c 0.500396,0.05929 1.072279,0.1186 1.572676,0.177901 l 0,4.921926 c -0.571883,-0.0593 -1.07228,-0.1186 -1.572676,-0.2372 z m 5.432875,-14.350682 c 0.5004,0 1.0008,-0.0593 1.57268,-0.1186 l 0,4.921928 c -0.5004,0.05929 -1.00079,0.05929 -1.57268,0.1186 l 0,-4.862627 c 0,0 0,0 0,-0.05929 z m 0.42892,-8.479945 0,0.237201 0,4.328923 c -0.5004,-0.05929 -1.07228,-0.05929 -1.57268,-0.1186 l 0,-4.862628 c 0,0 0,0 0,0 l 0,-0.05929 c 0.5004,0.05929 1.00079,0.05929 1.57268,0.1186 l 0,0.355802 z m -1.14377,18.383102 0,0.355801 0,0.237202 0,4.328923 c -0.57188,0 -1.07228,-0.0593 -1.57267,-0.0593 l 0,-4.862627 c 0,0 0,0 0,0 l 0,-0.05929 c 0.50039,0 1.07228,0.05929 1.57267,0.05929 z m 0.57188,7.946243 0,0.474404 0,0.889504 0,3.380118 c -0.9293,-0.355802 -1.50119,-0.711603 -1.57267,-0.889505 l 0,-4.328923 c 0.5004,0.177901 1.00079,0.355801 1.57267,0.474402 z m -1.4297,-12.868172 c -0.5004,0 -1.07228,0 -1.572677,0.0593 l 0,-4.862626 c 0,0 0,0 0,-0.0593 0.500397,0 1.072277,0 1.572677,-0.05929 l 0,4.921928 z m -1.14377,-9.13225 c -0.571877,-0.05929 -1.072274,-0.1186 -1.572671,-0.237201 l 0,-4.862627 c 0.500397,0.05929 1.072279,0.118601 1.572671,0.1779 l 0,4.921928 z m -4.789509,32.318679 0,0.889505 0,3.380119 C 16.771056,54.31792 16.199173,53.962119 16.127689,53.784218 l 0,-4.328924 c 0.500397,0.177902 1.000794,0.355802 1.572675,0.533703 l 0,0.415102 z m 3.145353,0.415102 c 0,0 0,0 0,0 l 0,4.684732 c -0.571883,-0.118606 -1.072279,-0.237207 -1.572676,-0.355807 l 0,-4.744027 c 0,0 0,0 0,0 l 0,-0.05929 c 0.500397,0.118602 1.000793,0.237202 1.572676,0.296502 l 0,0.177901 z m 3.145356,5.159133 c -0.57189,-0.0593 -1.07228,-0.118601 -1.57268,-0.237201 l 0,-4.862631 c 0.5004,0.0593 1.07228,0.1186 1.57268,0.177901 l 0,4.921931 z m 3.14535,-4.269628 0,0.237202 0,4.328926 c -0.5004,-0.0593 -1.07228,-0.0593 -1.57268,-0.1186 l 0,-4.86263 c 0,0 0,0 0,0 l 0,-0.0593 c 0.5004,0.0593 1.0008,0.0593 1.57268,0.118601 l 0,0.355802 z m 3.14535,-0.237201 0,0.237201 c 0,0 0,0.0593 0,0.0593 l 0,4.566128 c -0.57188,0 -1.07228,0 -1.57268,-0.0593 l 0,-4.625427 c 0,0 0,0 0,0 l 0,-0.296503 c 0.57189,0.0593 1.07228,0.0593 1.57268,0.118601 0,0 0,0 0,0 z m 3.21684,4.862629 c -0.5004,0 -1.07228,0 -1.57268,0.0593 l 0,-4.86263 c 0,0 0,0 0,-0.0593 0.5004,0 1.07228,0 1.57268,-0.0593 l 0,4.92193 z m -2.35902,-7.353242 c -9.721994,0 -14.582993,-1.838311 -14.94042,-2.609216 0.214456,-0.415102 1.644162,-1.126706 4.432088,-1.719708 1.000794,2.727814 7.577442,3.913821 13.367742,4.269623 -0.9293,0 -1.85861,0.0593 -2.85941,0.0593 z m -4.50357,-8.420646 0,0 c 0.5004,0.0593 1.00079,0.1779 1.57268,0.237201 l 0,0.177901 c 0,0 0,0 0,0 l 0,4.684726 c -0.57189,-0.118601 -1.07228,-0.237202 -1.57268,-0.355803 l 0,-4.744025 c 0,0 0,0 0,0 z m 1.00079,-8.242747 0,0.237202 c 0,0 0,0.0593 0,0.0593 l 0,4.566124 c -0.57188,0 -1.07227,0 -1.57267,-0.05929 l 0,-4.625426 c 0,0 0,0 0,0 l 0,-0.237201 c 0.5004,0 1.07228,0 1.57267,0.05929 0,0 0,0 0,0 z m 3.14536,4.862627 c -0.5004,0 -1.07228,0 -1.57268,0.0593 l 0,-4.862627 c 0,0 0,0 0,-0.05929 0.5004,0 1.07228,0 1.57268,-0.05929 l 0,4.921928 z m 0.57188,4.091722 0,4.921928 c -0.57188,-0.0593 -1.07228,-0.1186 -1.57268,-0.237202 l 0,-4.862626 c 0.5004,0.0593 1.0008,0.118601 1.57268,0.1779 z m 1.07228,-9.132249 c 0.50039,0 1.00079,-0.0593 1.57267,-0.118601 l 0,4.981228 c -0.50039,0.0593 -1.00079,0.0593 -1.57267,0.1186 l 0,-4.862627 c 0,-0.05929 0,-0.05929 0,-0.1186 z m 2.07307,9.725254 0,0.237201 0,4.328923 c -0.5004,-0.05929 -1.07228,-0.05929 -1.57268,-0.1186 l 0,-4.862627 c 0,0 0,0 0,0 l 0,-0.0593 c 0.5004,0.0593 1.0008,0.0593 1.57268,0.118601 l 0,0.355801 z m 2.14456,14.291381 c -0.5004,0.0593 -1.00079,0.0593 -1.57268,0.1186 l 0,-4.862629 c 0,0 0,-0.0593 0,-0.0593 0.5004,0 1.0008,-0.05929 1.57268,-0.118601 l 0,4.92193 z m 1.00079,-14.469282 0,0.2372 c 0,0 0,0.0593 0,0.0593 l 0,4.566126 c -0.57188,0 -1.07228,0 -1.57267,-0.0593 l 0,-4.625425 c 0,0 0,0 0,0 l 0,-0.296502 c 0.50039,0.0593 1.07228,0.0593 1.57267,0.118601 0,-0.05929 0,-0.05929 0,0 z m -2.14456,-4.862628 0,-4.921926 c 0.5004,-0.05929 1.07228,-0.118602 1.57268,-0.177901 l 0,4.862627 c -0.42891,0.1186 -1.00079,0.1779 -1.57268,0.2372 z m 4.28912,18.916809 c -0.5004,0.0593 -1.00079,0.1779 -1.57268,0.237201 l 0,-4.921931 c 0.5004,-0.0593 1.07228,-0.118601 1.57268,-0.177901 l 0,4.862631 z m 1.00079,-9.250855 c -0.50039,0 -1.07227,0 -1.57267,0.0593 l 0,-4.862627 c 0,0 0,0 0,-0.05929 0.5004,0 1.07228,0 1.57267,-0.0593 l 0,4.921928 z m 2.14456,8.657848 c -0.42891,0.1186 -1.00079,0.237201 -1.57267,0.355807 l 0,-4.862632 c 0.50039,-0.1186 1.07228,-0.177901 1.57267,-0.296503 l 0,4.803328 z m 1.0008,-8.835749 c -0.5004,0.0593 -1.0008,0.0593 -1.57268,0.1186 l 0,-4.862626 c 0,0 0,-0.05929 0,-0.05929 0.5004,0 1.0008,-0.0593 1.57268,-0.118601 l 0,4.921926 z m 2.14456,7.412541 c -0.0715,0.237201 -0.64337,0.593002 -1.57268,0.948805 l 0,-4.506825 c 0,-0.0593 0,-0.118601 0,-0.177901 0.57188,-0.177901 1.07228,-0.355801 1.57268,-0.533703 l 0,4.269624 z m 1.07227,-7.768344 c -0.50039,0.0593 -1.00079,0.177901 -1.57267,0.237202 l 0,-4.921928 c 0.5004,-0.05929 1.07228,-0.1186 1.57267,-0.1779 l 0,4.862626 z m 3.07387,-0.652303 c -0.42891,0.118601 -1.00079,0.237202 -1.57267,0.355803 l 0,-4.862627 c 0.50039,-0.118601 1.07227,-0.177902 1.57267,-0.296503 l 0,4.803327 z m 3.14535,-1.423207 c -0.0715,0.237201 -0.64336,0.593002 -1.57267,0.948804 l 0,-4.506824 c 0,-0.0593 0,-0.118601 0,-0.177902 0.57188,-0.177901 1.07228,-0.355801 1.57267,-0.533702 l 0,4.269624 z m -6.93407,-9.310151 0,-0.177903 c 4.43209,0.593004 6.71962,1.60111 7.00556,2.134812 -0.35743,0.770904 -5.21843,2.609215 -14.94042,2.609215 -0.42892,0 -0.85783,0 -1.35822,0 4.86099,-0.711604 9.29308,-2.075512 9.29308,-4.566124 z m -7.72041,1.779009 0,-4.862627 c 0.5004,-0.118601 1.07228,-0.177902 1.57268,-0.296502 l 0,4.803327 c -0.5004,0.118601 -1.0008,0.237201 -1.57268,0.355802 z m 4.71803,-1.779009 c -0.0715,0.237201 -0.64337,0.593002 -1.57268,0.948803 l 0,-4.506823 c 0,-0.0593 0,-0.118602 0,-0.177901 0.57189,-0.177902 1.07228,-0.355803 1.57268,-0.533704 l 0,4.269625 z m -0.0715,-7.412543 c -0.35743,0.770905 -5.21843,2.609215 -14.94042,2.609215 -1.35822,0 -2.64496,-0.05929 -3.86021,-0.1186 6.00477,-0.296502 13.22478,-1.42321 14.44003,-4.210325 2.78792,0.593004 4.21763,1.304608 4.3606,1.71971 z m -14.583,-13.579776 0,0.237202 c 0,0 0,0.05929 0,0.05929 l 0,4.566126 c -0.57188,0 -1.07228,0 -1.57267,-0.05929 l 0,-4.625425 c 0,0 0,0 0,0 l 0,-0.296503 c 0.50039,0.05929 1.07228,0.05929 1.57267,0.1186 0,-0.05929 0,0 0,0 z m 1.14377,8.242747 0,4.862626 c -0.5004,0.05929 -1.0008,0.177901 -1.57268,0.237202 l 0,-4.921928 c 0.5004,-0.05929 1.07228,-0.1186 1.57268,-0.1779 z m 2.00159,-3.439419 c -0.5004,0 -1.07228,0 -1.57268,0.05929 l 0,-4.862627 c 0,0 0,0 0,-0.05929 0.5004,0 1.07228,0 1.57268,-0.05929 l 0,4.921926 z m 1.14376,2.846415 0,4.803327 c -0.42891,0.118601 -1.00079,0.237201 -1.57268,0.355802 l 0,-4.862627 c 0.57189,-0.05929 1.07228,-0.177902 1.57268,-0.296502 z m 1.57268,-0.355801 c 0.14297,-0.05929 0.21445,-0.05929 0.35742,-0.118601 0.42891,-0.0593 0.78634,-0.0593 1.21525,-0.118601 l 0,4.032422 c -0.0715,0.237201 -0.64337,0.593004 -1.57267,0.948806 l 0,-4.506826 c 0,-0.1186 0,-0.1779 0,-0.2372 z m 0.42891,-2.668515 c -0.5004,0.05929 -1.0008,0.05929 -1.57268,0.1186 l 0,-4.862627 c 0,0 0,-0.0593 0,-0.0593 0.5004,0 1.0008,-0.05929 1.57268,-0.118601 l 0,4.921927 z m 1.57267,-0.118601 0,-4.921928 c 0.5004,-0.0593 1.07228,-0.1186 1.57268,-0.1779 l 0,4.862627 c -0.42891,0.0593 -1.00079,0.1779 -1.57268,0.237201 z m 4.71803,-0.889505 c -0.42891,0.118601 -1.00079,0.237201 -1.57267,0.355801 l 0,-4.862627 c 0.50039,-0.1186 1.07228,-0.1779 1.57267,-0.296501 l 0,4.803327 z m 3.14535,-1.423207 c -0.0715,0.2372 -0.64336,0.593002 -1.57267,0.948804 l 0,-4.506824 c 0,-0.05929 0,-0.118601 0,-0.177902 0.57188,-0.1779 1.07228,-0.355802 1.57267,-0.533703 l 0,4.269625 z M 29.566903,5.8102531 c 9.72199,0 14.58299,1.83831 14.94042,2.609214 -0.35743,0.770904 -5.21843,2.6092139 -14.94042,2.6092139 -9.722,0 -14.582999,-1.8383099 -14.940425,-2.6092139 0.357426,-0.770904 5.218425,-2.609214 14.940425,-2.609214 z M 14.626478,11.443783 c 0.500397,0.177901 1.000794,0.355802 1.572675,0.533704 l 0,0.474401 0,0.889505 0,3.380119 c -0.929308,-0.355802 -1.50119,-0.711604 -1.572675,-0.889505 l 0,-4.388224 z m -3.002381,3.913821 0,0.474403 c 0,1.897612 2.501984,3.142918 5.933277,3.973122 C 10.337362,19.390027 6.620127,17.96682 6.334186,17.255215 6.548642,16.780813 8.264288,15.950609 11.624097,15.357604 Z m -5.289911,4.921928 c 0.500397,0.1779 1.000794,0.355802 1.572675,0.533703 l 0,0.474403 0,0.889505 0,3.380117 C 6.977553,25.201459 6.405671,24.845658 6.334186,24.667756 l 0,-4.388224 z"
     id="path4135"
     inkscape:connector-curvature="0"
     style="fill:#ffffe6;fill-opacity:1;filter:url(#filter4197)" /><path
     d="m 3.260342,24.667758 c 0,2.134813 3.216837,3.439419 7.220013,4.210323 l 0,5.692833 c 0,2.668514 4.789513,4.032421 10.007938,4.625424 l 0,2.846416 c -4.074661,0.770904 -7.362983,2.075512 -7.362983,4.269624 l 0,7.412541 c 0,4.032425 11.294673,5.099825 17.942804,5.099825 6.64813,0 17.942804,-1.0674 17.942804,-5.099825 l 0,-5.574232 c 4.074661,-0.770904 7.362984,-2.07551 7.362984,-4.269622 l 0,-7.353242 c 0,-2.668514 -4.789514,-4.032422 -10.007939,-4.625424 l 0,-4.684727 c 0,-2.134812 -3.216837,-3.439419 -7.220013,-4.210323 l 0,-2.727815 c 4.503573,-0.711605 8.363777,-2.075511 8.363777,-4.388224 l 0,-7.4718419 c 0.07149,-4.032421 -11.223188,-5.159128 -17.942804,-5.159128 -6.719615,0 -17.942803,1.126707 -17.942803,5.159128 l 0,4.3882249 c -4.503573,0.711604 -8.363778,2.075512 -8.363778,4.388224 l 0,7.471841 z m 7.72041,-2.965016 c 0,0 0,0.0593 0,0 l 0,4.684726 C 10.408869,26.268867 9.908472,26.150267 9.408075,26.031666 l 0,-4.744026 c 0,0 0,0 0,0 l 0,-0.05929 c 0.500397,0.1186 1.000794,0.237201 1.572677,0.2965 l 0,0.177903 z m 4.074661,9.547353 0,0.889505 0,3.380117 c -0.929309,-0.355801 -1.501191,-0.711602 -1.572677,-0.889504 l 0,-4.328924 c 0.500397,0.177901 1.000794,0.355802 1.572677,0.533704 l 0,0.415102 z m -2.501985,-4.566126 0,-4.862626 c 0.500397,0.05929 1.072279,0.118601 1.572676,0.1779 l 0,4.921928 c -0.500397,-0.1186 -1.072279,-0.177901 -1.572676,-0.237202 z m 3.216837,-4.506824 0,0 c 0.500397,0 1.000794,0.05929 1.572676,0.05929 l 0,0.355801 0,0.237202 0,4.328923 c -0.500396,-0.05929 -1.072279,-0.05929 -1.572676,-0.118597 l 0,-4.862627 c 0,0 0,0 0,0 z m 2.430499,9.488052 c 0,0 0,0 0,0 l 0,4.684726 c -0.571881,-0.118601 -1.072278,-0.237201 -1.572675,-0.355802 l 0,-4.744026 c 0,0 0,0 0,0 l 0,-0.05929 c 0.500397,0.1186 1.000794,0.237201 1.572675,0.2965 l 0,0.177903 z m -0.428911,-19.213307 0,0 c 0.500397,0.0593 1.000794,0.177902 1.572676,0.237201 l 0,0.177903 c 0,0 0,0 0,0 l 0,4.684724 c -0.571882,-0.1186 -1.072279,-0.2372 -1.572676,-0.355801 l 0,-4.744027 c 0,0 0,0 0,0 z m 1.072279,10.140357 0,-0.296502 c 0.571882,0 1.072279,0.05929 1.572676,0.05929 0,0 0,0 0,0.05929 l 0,0.237202 c 0,0 0,0.05929 0,0.05929 l 0,4.566124 c -0.571882,0 -1.072279,0 -1.572676,-0.05929 l 0,-4.625425 c 0,0 0,0 0,0 z m 0.929309,13.994878 0,-4.862627 c 0.500396,0.05929 1.072279,0.1186 1.572676,0.177901 l 0,4.921926 c -0.571883,-0.0593 -1.07228,-0.1186 -1.572676,-0.2372 z m 5.43288,-14.350681 c 0.500397,0 1.000794,-0.0593 1.572676,-0.1186 l 0,4.921928 c -0.500396,0.05929 -1.000793,0.05929 -1.572676,0.1186 l 0,-4.862627 c 0,0 0,0 0,-0.05929 z m 0.428912,-8.479945 0,0.237201 0,4.328923 c -0.500396,-0.05929 -1.072279,-0.05929 -1.572676,-0.1186 l 0,-4.862628 c 0,0 0,0 0,0 l 0,-0.05929 c 0.500397,0.05929 1.000794,0.05929 1.572676,0.1186 l 0,0.355802 z m -1.143764,18.383101 0,0.355801 0,0.237202 0,4.328923 c -0.571883,0 -1.07228,-0.0593 -1.572677,-0.0593 l 0,-4.862627 c 0,0 0,0 0,0 l 0,-0.05929 c 0.500397,0 1.07228,0.05929 1.572677,0.05929 z m 0.571882,7.946243 0,0.474404 0,0.889504 0,3.380118 C 24.134043,44.474067 23.56216,44.118266 23.490675,43.940364 l 0,-4.328923 c 0.500397,0.177901 1.000794,0.355801 1.572676,0.474402 z M 23.633646,27.217672 c -0.500397,0 -1.07228,0 -1.572677,0.0593 l 0,-4.862626 c 0,0 0,0 0,-0.0593 0.500397,0 1.07228,0 1.572677,-0.05929 l 0,4.921928 z m -1.143765,-9.13225 c -0.571882,-0.05929 -1.072279,-0.1186 -1.572676,-0.237201 l 0,-4.862627 c 0.500397,0.05929 1.072279,0.118601 1.572676,0.1779 l 0,4.921928 z m -4.789514,32.318678 0,0.889505 0,3.380119 C 16.771059,54.317921 16.199176,53.96212 16.127692,53.784219 l 0,-4.328924 c 0.500397,0.177902 1.000794,0.355802 1.572675,0.533703 l 0,0.415102 z m 3.145353,0.415102 c 0,0 0,0 0,0 l 0,4.684727 c -0.571883,-0.118601 -1.072279,-0.237202 -1.572676,-0.355802 l 0,-4.744027 c 0,0 0,0 0,0 l 0,-0.05929 c 0.500397,0.118602 1.000793,0.237202 1.572676,0.296502 l 0,0.177901 z m 3.145352,5.159132 c -0.571883,-0.0593 -1.07228,-0.118603 -1.572677,-0.237204 l 0,-4.862627 c 0.500397,0.0593 1.07228,0.1186 1.572677,0.177901 l 0,4.92193 z m 3.145352,-4.269627 0,0.237202 0,4.328925 c -0.500397,-0.0593 -1.072279,-0.0593 -1.572676,-0.1186 l 0,-4.862629 c 0,0 0,0 0,0 l 0,-0.0593 c 0.500397,0.0593 1.000794,0.0593 1.572676,0.118601 l 0,0.355802 z m 3.145352,-0.237201 0,0.237201 c 0,0 0,0.0593 0,0.0593 l 0,4.566127 c -0.571883,0 -1.072279,0 -1.572676,-0.0593 l 0,-4.625426 c 0,0 0,0 0,0 l 0,-0.296503 c 0.571882,0.0593 1.072279,0.0593 1.572676,0.118601 0,0 0,0 0,0 z m 3.216837,4.862628 c -0.500397,0 -1.072279,0 -1.572676,0.0593 l 0,-4.862629 c 0,0 0,0 0,-0.0593 0.500397,0 1.072279,0 1.572676,-0.0593 l 0,4.921929 z M 31.1396,48.980893 c -9.721998,0 -14.582997,-1.838311 -14.940424,-2.609216 0.214456,-0.415102 1.644162,-1.126706 4.432088,-1.719708 1.000794,2.727814 7.577439,3.913821 13.367746,4.269623 -0.929308,0 -1.858617,0.0593 -2.85941,0.0593 z m -4.503573,-8.420646 0,0 c 0.500397,0.0593 1.000794,0.1779 1.572676,0.237201 l 0,0.177901 c 0,0 0,0 0,0 l 0,4.684726 c -0.571882,-0.118601 -1.072279,-0.237202 -1.572676,-0.355803 l 0,-4.744025 c 0,0 0,0 0,0 z m 1.000794,-8.242747 0,0.237202 c 0,0 0,0.0593 0,0.0593 l 0,4.566124 c -0.571882,0 -1.072279,0 -1.572676,-0.05929 l 0,-4.625426 c 0,0 0,0 0,0 l 0,-0.237201 c 0.500397,0 1.072279,0 1.572676,0.05929 0,0 0,0 0,0 z m 3.145352,4.862627 c -0.500397,0 -1.07228,0 -1.572676,0.0593 l 0,-4.862627 c 0,0 0,0 0,-0.05929 0.500396,0 1.072279,0 1.572676,-0.05929 l 0,4.921928 z m 0.571882,4.091722 0,4.921928 c -0.571882,-0.0593 -1.072279,-0.1186 -1.572676,-0.237202 l 0,-4.862626 c 0.500397,0.0593 1.000794,0.118601 1.572676,0.1779 z M 32.426334,32.1396 c 0.500397,0 1.000794,-0.0593 1.572676,-0.118601 l 0,4.981228 c -0.500397,0.0593 -1.000794,0.0593 -1.572676,0.1186 l 0,-4.862627 c 0,-0.05929 0,-0.05929 0,-0.1186 z m 2.073073,9.725254 0,0.237201 0,4.328923 c -0.500397,-0.05929 -1.072279,-0.05929 -1.572676,-0.1186 l 0,-4.862627 c 0,0 0,0 0,0 l 0,-0.0593 c 0.500397,0.0593 1.000794,0.0593 1.572676,0.118601 l 0,0.355801 z m 2.144559,14.29138 c -0.500397,0.0593 -1.000794,0.0593 -1.572677,0.1186 l 0,-4.862628 c 0,0 0,-0.0593 0,-0.0593 0.500397,0 1.000794,-0.05929 1.572677,-0.118601 l 0,4.921929 z m 1.000794,-14.469281 0,0.2372 c 0,0 0,0.0593 0,0.0593 l 0,4.566126 c -0.571883,0 -1.07228,0 -1.572677,-0.0593 l 0,-4.625425 c 0,0 0,0 0,0 l 0,-0.296502 c 0.500397,0.0593 1.07228,0.0593 1.572677,0.118601 0,-0.05929 0,-0.05929 0,0 z m -2.144559,-4.862628 0,-4.921926 c 0.500397,-0.05929 1.072279,-0.118602 1.572676,-0.177901 l 0,4.862627 c -0.428911,0.1186 -1.000794,0.1779 -1.572676,0.2372 z m 4.289116,18.916805 c -0.500396,0.0593 -1.000793,0.1779 -1.572676,0.237204 l 0,-4.92193 c 0.500397,-0.0593 1.07228,-0.118601 1.572676,-0.177901 l 0,4.862627 z m 1.000794,-9.250851 c -0.500397,0 -1.072279,0 -1.572676,0.0593 l 0,-4.862627 c 0,0 0,0 0,-0.05929 0.500397,0 1.072279,0 1.572676,-0.0593 l 0,4.921928 z m 2.144559,8.657848 c -0.428912,0.1186 -1.000794,0.237201 -1.572676,0.355802 l 0,-4.862627 c 0.500397,-0.1186 1.072279,-0.177901 1.572676,-0.296503 l 0,4.803328 z m 1.000794,-8.835749 c -0.500397,0.0593 -1.000794,0.0593 -1.572676,0.1186 l 0,-4.862626 c 0,0 0,-0.05929 0,-0.05929 0.500397,0 1.000794,-0.0593 1.572676,-0.118601 l 0,4.921926 z m 2.144558,7.412541 c -0.07148,0.237201 -0.643368,0.593002 -1.572677,0.948805 l 0,-4.506825 c 0,-0.0593 0,-0.118601 0,-0.177901 0.571883,-0.177901 1.07228,-0.355801 1.572677,-0.533703 l 0,4.269624 z m 1.072279,-7.768344 c -0.500397,0.0593 -1.000794,0.177901 -1.572676,0.237202 l 0,-4.921928 c 0.500397,-0.05929 1.072279,-0.1186 1.572676,-0.1779 l 0,4.862626 z m 3.073866,-0.652303 c -0.428911,0.118601 -1.000794,0.237202 -1.572675,0.355803 l 0,-4.862627 c 0.500397,-0.118601 1.072278,-0.177902 1.572675,-0.296503 l 0,4.803327 z m 3.145353,-1.423207 c -0.07148,0.237201 -0.643368,0.593002 -1.572676,0.948804 l 0,-4.506824 c 0,-0.0593 0,-0.118601 0,-0.177902 0.571882,-0.177901 1.072279,-0.355801 1.572676,-0.533702 l 0,4.269624 z m -6.934072,-9.310151 0,-0.177903 c 4.432087,0.593004 6.719616,1.60111 7.005557,2.134812 -0.357426,0.770904 -5.218425,2.609215 -14.940423,2.609215 -0.428911,0 -0.857822,0 -1.358219,0 4.860998,-0.711604 9.293085,-2.075512 9.293085,-4.566124 z m -7.72041,1.779009 0,-4.862627 c 0.500397,-0.118601 1.072279,-0.177902 1.572676,-0.296502 l 0,4.803327 c -0.500397,0.118601 -1.000793,0.237201 -1.572676,0.355802 z m 4.718029,-1.779009 c -0.07148,0.237201 -0.643368,0.593002 -1.572676,0.948803 l 0,-4.506823 c 0,-0.0593 0,-0.118602 0,-0.177901 0.571882,-0.177902 1.072279,-0.355803 1.572676,-0.533704 l 0,4.269625 z m -0.07148,-7.412542 c -0.357427,0.770905 -5.218426,2.609214 -14.940424,2.609214 -1.358219,0 -2.644954,-0.05929 -3.860204,-0.1186 6.004763,-0.296502 13.224776,-1.423209 14.440025,-4.210324 2.787926,0.593004 4.217631,1.304608 4.360603,1.71971 z M 28.78059,13.578596 l 0,0.237202 c 0,0 0,0.05929 0,0.05929 l 0,4.566126 c -0.571882,0 -1.072279,0 -1.572676,-0.05929 l 0,-4.625425 c 0,0 0,0 0,0 l 0,-0.296503 c 0.500397,0.05929 1.072279,0.05929 1.572676,0.1186 0,-0.05929 0,0 0,0 z m 1.143764,8.242747 0,4.862626 c -0.500397,0.05929 -1.000794,0.177901 -1.572675,0.237202 l 0,-4.921928 c 0.500397,-0.05929 1.072278,-0.1186 1.572675,-0.1779 z m 2.001588,-3.439419 c -0.500397,0 -1.072279,0 -1.572676,0.05929 l 0,-4.862627 c 0,0 0,0 0,-0.05929 0.500397,0 1.072279,0 1.572676,-0.05929 l 0,4.921926 z m 1.143765,2.846415 0,4.803327 c -0.428913,0.118601 -1.000794,0.237201 -1.572677,0.355802 l 0,-4.862627 c 0.571883,-0.05929 1.07228,-0.177902 1.572677,-0.296502 z m 1.572675,-0.355801 c 0.142971,-0.05929 0.214457,-0.05929 0.357427,-0.118601 0.428911,-0.0593 0.786338,-0.0593 1.215249,-0.118601 l 0,4.032422 c -0.07148,0.237201 -0.643367,0.593004 -1.572676,0.948806 l 0,-4.506826 c 0,-0.1186 0,-0.1779 0,-0.2372 z m 0.428912,-2.668515 c -0.500396,0.05929 -1.000793,0.05929 -1.572676,0.1186 l 0,-4.862627 c 0,0 0,-0.0593 0,-0.0593 0.500397,0 1.000794,-0.05929 1.572676,-0.118601 l 0,4.921927 z m 1.572676,-0.118601 0,-4.921928 c 0.500397,-0.0593 1.072279,-0.1186 1.572676,-0.1779 l 0,4.862627 c -0.428911,0.0593 -1.000794,0.1779 -1.572676,0.237201 z m 4.718029,-0.889505 c -0.428913,0.118601 -1.000794,0.237201 -1.572677,0.355801 l 0,-4.862627 c 0.500397,-0.1186 1.07228,-0.1779 1.572677,-0.296501 l 0,4.803327 z M 44.50735,15.77271 c -0.07148,0.2372 -0.643367,0.593002 -1.572676,0.948804 l 0,-4.506824 c 0,-0.05929 0,-0.118601 0,-0.177902 0.571883,-0.1779 1.07228,-0.355802 1.572676,-0.533703 l 0,4.269625 z M 29.566923,5.8102541 c 9.721998,0 14.582997,1.83831 14.940422,2.609214 -0.357425,0.770905 -5.218424,2.6092149 -14.940422,2.6092149 -9.721997,0 -14.582996,-1.8383099 -14.940422,-2.6092149 0.357426,-0.770904 5.218425,-2.609214 14.940422,-2.609214 z M 14.626501,11.443785 c 0.500397,0.177901 1.000794,0.355802 1.572675,0.533704 l 0,0.474401 0,0.889505 0,3.380119 c -0.929308,-0.355802 -1.50119,-0.711604 -1.572675,-0.889505 l 0,-4.388224 z m -3.002381,3.913821 0,0.474403 c 0,1.897612 2.501984,3.142918 5.933277,3.973122 C 10.337385,19.390029 6.62015,17.966822 6.334209,17.255217 6.548665,16.780815 8.264311,15.950611 11.62412,15.357606 Z m -5.289911,4.921928 c 0.500397,0.1779 1.000794,0.355802 1.572675,0.533703 l 0,0.474403 0,0.889505 0,3.380117 C 6.977576,25.201461 6.405694,24.84566 6.334209,24.667758 l 0,-4.388224 z"
     id="path4"
     inkscape:connector-curvature="0"
     style="fill:#ffffff;fill-opacity:1" /></svg>