<?xml version="1.0" encoding="UTF-8" standalone="no"?>
<svg
   xmlns:dc="http://purl.org/dc/elements/1.1/"
   xmlns:cc="http://creativecommons.org/ns#"
   xmlns:rdf="http://www.w3.org/1999/02/22-rdf-syntax-ns#"
   xmlns:svg="http://www.w3.org/2000/svg"
   xmlns="http://www.w3.org/2000/svg"
   xmlns:sodipodi="http://sodipodi.sourceforge.net/DTD/sodipodi-0.dtd"
   xmlns:inkscape="http://www.inkscape.org/namespaces/inkscape"
   version="1.0"
   x="0px"
   y="0px"
   viewBox="0 0 97.166092 126.33619"
   xml:space="preserve"
   id="svg2"
   inkscape:version="0.91 r13725"
   sodipodi:docname="nickels.svg"
   width="97.166092"
   height="126.33619"><metadata
     id="metadata14"><rdf:RDF><cc:Work
         rdf:about=""><dc:format>image/svg+xml</dc:format><dc:type
           rdf:resource="http://purl.org/dc/dcmitype/StillImage" /><dc:title></dc:title></cc:Work></rdf:RDF></metadata><defs
     id="defs12"><filter
       inkscape:collect="always"
       style="color-interpolation-filters:sRGB"
       id="filter4153"
       x="-0.070272036"
       width="1.1405441"
       y="-0.052348014"
       height="1.104696"><feGaussianBlur
         inkscape:collect="always"
         stdDeviation="2.494445"
         id="feGaussianBlur4155" /></filter></defs><sodipodi:namedview
     pagecolor="#000000"
     bordercolor="#666666"
     borderopacity="1"
     objecttolerance="10"
     gridtolerance="10"
     guidetolerance="10"
     inkscape:pageopacity="0"
     inkscape:pageshadow="2"
     inkscape:window-width="1026"
     inkscape:window-height="559"
     id="namedview10"
     showgrid="false"
     fit-margin-top="0"
     fit-margin-left="0"
     fit-margin-right="0"
     fit-margin-bottom="0"
     inkscape:zoom="1.3323924"
     inkscape:cx="-102.02191"
     inkscape:cy="71.090596"
     inkscape:window-x="89"
     inkscape:window-y="51"
     inkscape:window-maximized="0"
     inkscape:current-layer="svg2"
     showborder="true"
     inkscape:snap-bbox="true"
     inkscape:snap-bbox-midpoints="true" /><path
     d="m 61.986668,6.9495154 c -8.1,-1.3 -15.9,-1.3 -22,0.1 -6.1,1.3 -9.9,3.7999996 -11,7.1999996 l -0.1,0 -2.1,13.199999 c -0.2,1.3 0,2.7 0.6,4 -12,1.6 -20.2999997,6 -21.2999997,11.6 l -0.1,0 0,1 0,12.300005 c 0,4.7 5.1999997,8.7 13.2999997,11 l 0,0.6 c 0,3.5 2.9,6.6 7.8,9 -4.4,2.1 -7.2,4.8 -7.7,7.9 l -0.1,0 0,1 0,12.3 c 0,2.300001 1.3,4.500001 3.5,6.300001 l 0,2.6 c 0,7.6 13.6,13.3 31.6,13.3 18,0 31.6,-5.7 31.6,-13.3 l 0,-12.000001 0,0 c 0,-0.1 0,-0.2 0,-0.3 0,-2 -0.9,-3.9 -2.7,-5.5 4.70001,-2.3 7.50001,-5.4 7.50001,-8.8 l 0,-12 0,0 c 0,-0.1 0,-0.2 0,-0.3 0,-3.7 -3.20001,-6.9 -8.40001,-9.2 l 0,-3 0,0 c 0,-0.1 0,-0.2 0,-0.300004 0,-3.8 -3.4,-7.1 -9,-9.500001 8.9,-1 14.90001,-4.1 15.70001,-8.9 l 1.9,-11.8 0,0 c 0,-0.1 0,-0.2 0.1,-0.3 1.3,-7.6 -11.20001,-15.3999986 -29.10001,-18.1999986 z m -7.4,109.9000046 c -16.6,0 -28.1,-5.2 -28.1,-9.8 l 0,-0.3 c 5.7,2.9 14.4,4.7 24.6,4.7 14.8,0 26.6,-3.9 30.4,-9.5 0.5,-0.3 0.9,-0.6 1.3,-0.9 l 0,5.9 c -0.1,4.7 -11.7,9.9 -28.2,9.9 z m 33.10001,-92.300006 c 0,0.1 0,0.2 -0.10001,0.3 -0.6,2.1 -3.7,4 -8.5,5 -5.7,1.2 -13.1,1.2 -20.7,0 -16.4,-2.6 -27,-9.5 -26.2,-14.099999 0,0 0,0 0,0 0,0 0,0 0,0 0.1,-0.3 0.2,-0.6 0.3,-1 1,-1.8 3.9,-3.4 8.2,-4.3 2.9,-0.5999996 6.2,-0.8999996 9.7,-0.8999996 3.5,0 7.2,0.3 11,0.8999996 16.4,2.6 27.00001,9.499999 26.30001,14.099999 z m -43.70001,18.1 c 1.5,0.5 3,0.9 4.6,1.4 0.2,0 0.4,0.1 0.5,0.1 2.2,0.5 4.4,1 6.8,1.4 3.1,0.5 6.1,0.8 8.9,0.9 -0.2,0.2 -0.4,0.500001 -0.6,0.700001 -3.6,3.6 -13.6,6.8 -26.6,6.8 -4.9,0 -9.4,-0.5 -13.3,-1.2 -0.7,-0.1 -1.3,-0.3 -2,-0.4 -0.6,-0.1 -1.2,-0.3 -1.8,-0.5 -6.9,-1.9 -10.9999997,-4.9 -10.9999997,-7.700001 0,-0.3 0.1,-0.7 0.2,-1 1.1999997,-3.6 8.8999997,-7.2 19.9999997,-8.4 3.1,3 8,5.8 14.3,7.9 z M 9.5866683,50.449515 c 2.2999997,1.9 5.6999997,3.5 9.7999997,4.7 0,0 0,0 0,0 0.6,0.2 1.1,0.3 1.7,0.5 0,0 0,0 0,0 0.6,0.100004 1.2,0.300004 1.8,0.400004 0,0 0,0 0,0 4.4,0.9 9.4,1.4 14.8,1.4 0.8,0 1.6,0 2.4,0 5.6,-0.2 10.6,-0.9 15,-2.000004 0.7,-0.2 1.4,-0.4 2,-0.6 3.6,-1.2 6.6,-2.6 8.7,-4.4 l 0,4.6 0,0.6 0,0.800004 c 0,0.1 0,0.3 0,0.4 -0.1,0.6 -0.3,1.1 -0.8,1.7 -2.1,2.9 -8.1,5.6 -16.7,6.9 -3,0.5 -6.3,0.7 -9.8,0.8 -0.3,0 -0.5,0 -0.8,0 -1.9,0 -3.8,-0.1 -5.6,-0.2 -0.7,0 -1.3,-0.1 -2,-0.2 -0.1,0 -0.1,0 -0.2,0 -0.6,-0.1 -1.1,-0.1 -1.6,-0.2 -1.9,-0.3 -3.7,-0.6 -5.4,-1 -0.6,-0.1 -1.2,-0.3 -1.8,-0.4 -0.6,-0.2 -1.2,-0.3 -1.8,-0.5 -6.1,-1.9 -9.7999997,-4.7 -9.7999997,-7.3 l 0,-6.000004 z M 27.786668,69.149519 c 0,0 0.1,0 0,0 0.6,0.1 1.2,0.2 1.8,0.2 0.1,0 0.1,0 0.2,0 0.5,0.1 1.1,0.1 1.6,0.1 0.1,0 0.2,0 0.3,0 1.9,0.1 3.9,0.2 6,0.2 3.9,0 7.5,-0.3 10.9,-0.8 0.8,0 1.6,0 2.4,0 4.8,0 9.3,-0.4 13.3,-1.2 6.4,-1.2 11.6,-3.2 14.8,-5.9 l 0,6.2 c 0,0.1 0,0.2 0,0.2 -0.2,2.4 -3.6,5 -9.1,6.8 -1,0.3 -2.2,0.7 -3.3,1 -1.4,0.3 -2.9,0.7 -4.5,0.9 -2.6,0.4 -5.4,0.7 -8.5,0.8 -0.9,0 -1.8,0 -2.7,0 -3.9,0 -7.6,-0.3 -10.9,-0.8 -0.1,0 -0.2,0 -0.3,0 -1.6,-0.3 -3.1,-0.6 -4.5,-0.9 -1.1,-0.3 -2.2,-0.6 -3.2,-0.9 0,0 -0.1,0 -0.1,0 -0.2,-0.1 -0.5,-0.2 -0.7,-0.2 -0.6,-0.2 -1.2,-0.5 -1.8,-0.7 -0.6,-0.3 -1.2,-0.5 -1.8,-0.8 -2.9,-1.5 -4.7,-3.3 -4.9,-5 1.7,0.3 3.3,0.5 5,0.8 z m 0,11.4 c 0,1.6 0.7,3.1 1.8,4.5 0.3,0.3 0.5,0.6 0.9,0.9 0.4,0.4 0.9,0.9 1.5,1.3 0.5,0.4 1.1,0.8 1.8,1.2 5.6,3.3 14.9,5.4 25.7,5.4 3.6,0 7,-0.2 10.1,-0.6 -1.8,0.6 -3.9,1.1 -6.1,1.5 -3.7,0.7 -7.9,1.1 -12.4,1.1 -5.9,0 -11.1,-0.7 -15.4,-1.7 -2.9,-0.7 -5.3,-1.6 -7.3,-2.5 -0.6,-0.3 -1.1,-0.6 -1.6,-0.9 -0.5,-0.3 -1,-0.7 -1.5,-1 -1.5,-1.2 -2.3,-2.5 -2.3,-3.7 0,-0.3 0.1,-0.7 0.2,-1 0.4,-1.7 2.1,-3.2 4.6,-4.5 z m -4.9,14.2 0,-1 0,-1.5 c 0.1,0.1 0.3,0.2 0.4,0.3 0.5,0.4 1,0.7 1.5,1 0.1,0.1 0.2,0.1 0.3,0.2 0,0 0,0 0,0 0.4,0.3 0.9,0.5 1.3,0.7 0,0 0,0 0,0 5.7,2.9 14.4,4.7 24.5,4.7 9.7,0 18.1,-1.7 23.8,-4.4 1.7,-0.8 3.1,-1.7 4.3,-2.7 l 0,2.8 0,3.2 c 0,0.5 -0.1,0.9 -0.3,1.4 -0.6,1.400001 -2.2,2.700001 -4.6,3.900001 -4.9,2.5 -13.1,4.5 -23.2,4.5 -0.7,0 -1.4,0 -2.1,0 -10.1,-0.3 -18.1,-2.5 -22.4,-5.2 -0.7,-0.4 -1.3,-0.9 -1.8,-1.3 -1.2,-1.1 -1.8,-2.200001 -1.8,-3.200001 l 0,-3.4 z m 59.8,-9 c -0.3,0.2 -0.6,0.3 -0.9,0.4 -0.3,0.1 -0.6,0.3 -0.9,0.4 0,0 0,0 -0.1,0 -0.2,0.1 -0.3,0.1 -0.5,0.2 -0.4,0.2 -0.8,0.3 -1.2,0.4 -0.1,0 -0.3,0.1 -0.4,0.1 -0.2,0.1 -0.4,0.1 -0.7,0.2 -0.8,0.3 -1.7,0.5 -2.6,0.8 -4.4,1.1 -9.9,1.8 -16,1.8 -8.6,0 -15.9,-1.4 -20.9,-3.4 -0.9,-0.4 -1.7,-0.7 -2.5,-1.1 -0.3,-0.2 -0.6,-0.3 -0.9,-0.5 -0.4,-0.2 -0.7,-0.5 -1.1,-0.7 -1.8,-1.3 -2.8,-2.7 -2.8,-4 l 0,-1.4 0,-0.5 c 0.2,0.1 0.5,0.1 0.7,0.2 5.2,1.6 11.7,2.5 19,2.5 0.9,0 1.7,0 2.6,0 1.9,0.1 3.8,0.2 5.8,0.2 5.1,0 9.9,-0.5 14.1,-1.3 0.9,-0.2 1.8,-0.4 2.6,-0.6 0.8,-0.2 1.5,-0.4 2.3,-0.6 3.8,-1.2 7,-2.7 9.2,-4.5 l 0,5.9 c 0.1,1.9 -1.7,3.8 -4.8,5.5 z m 4.8,-17.4 c -0.2,2.6 -4,5.3 -10.2,7.2 3.2,-2 5.1,-4.5 5.3,-7.3 0,-0.1 0,-0.2 0,-0.3 l 0,-5.2 c 3.1,1.6 4.9,3.5 4.9,5.3 0.1,0.1 0,0.2 0,0.3 z m -8.4,-12.4 c 0,0.5 -0.2,0.9 -0.5,1.4 -0.3,0.5 -0.7,1 -1.2,1.5 -0.5,0.5 -1.1,0.9 -1.8,1.3 -2.7,1.7 -7,3.3 -12.3,4.2 2.8,-1.6 4.7,-3.5 5.5,-5.5 0.2,-0.6 0.4,-1.1 0.5,-1.7 0,-0.3 0.1,-0.5 0.1,-0.8 l 0,-0.700004 0,-0.3 0,-7 c 6.1,1.9 9.8,4.7 9.8,7.3 -0.1,0.100004 -0.1,0.200004 -0.1,0.300004 z m -9.9,-13.100005 c -0.6,0 -1.2,0 -1.8,0 -0.6,0 -1.2,0 -1.9,0 -2.8,-0.1 -5.8,-0.4 -9,-0.9 -9.6,-1.5 -17.2,-4.5 -21.7,-7.6 -0.8,-0.6 -1.5,-1.1 -2.1,-1.7 -0.6,-0.6 -1.1,-1.1 -1.5,-1.7 -0.8,-1.1 -1.1,-2.1 -1,-3.1 l 0.9,-5.9 c 3.5,3.9 10.2,7.4 18.9,9.7 1.8,0.5 3.6,0.9 5.6,1.2 0.7,0.1 1.4,0.3 2.2,0.4 4,0.6 7.9,0.9 11.5,0.9 3.8,0 7.4,-0.3 10.5,-1 2.7,-0.6 5,-1.4 6.8,-2.5 l -0.9,5.9 c -0.4,3.4 -6.8,6 -16.5,6.3 z"
     id="path4135"
     inkscape:connector-curvature="0"
     style="fill:#ffffe6;fill-opacity:1;filter:url(#filter4153)" /><path
     d="m 61.986678,6.9495164 c -8.10001,-1.3 -15.90001,-1.3 -22.00001,0.1 -6.1,1.3 -9.9,3.7999996 -11,7.1999996 l -0.1,0 -2.1,13.2 c -0.2,1.3 0,2.7 0.6,4 -12,1.6 -20.2999997,6 -21.2999997,11.6 l -0.1,0 0,1 0,12.3 c 0,4.700004 5.1999997,8.700003 13.2999997,11.000003 l 0,0.6 c 0,3.5 2.9,6.6 7.8,9 -4.4,2.100002 -7.2,4.8 -7.7,7.9 l -0.1,0 0,1 0,12.3 c 0,2.300001 1.3,4.500001 3.5,6.300001 l 0,2.6 c 0,7.6 13.6,13.3 31.6,13.3 18.00001,0 31.60001,-5.7 31.60001,-13.3 l 0,-12.000001 0,0 c 0,-0.1 0,-0.2 0,-0.3 0,-2 -0.9,-3.9 -2.7,-5.5 4.7,-2.3 7.5,-5.4 7.5,-8.799998 l 0,-12.000002 0,0 c 0,-0.1 0,-0.2 0,-0.3 0,-3.7 -3.2,-6.899999 -8.4,-9.200003 l 0,-3 0,0 c 0,-0.1 0,-0.2 0,-0.3 0,-3.8 -3.4,-7.1 -9,-9.5 8.9,-1 14.9,-4.1 15.7,-8.9 l 1.9,-11.8 0,0 c 0,-0.1 0,-0.2 0.1,-0.3 1.3,-7.6 -11.2,-15.3999996 -29.1,-18.1999996 z M 54.586668,116.84952 c -16.6,0 -28.1,-5.2 -28.1,-9.8 l 0,-0.3 c 5.7,2.9 14.4,4.7 24.6,4.7 14.80001,0 26.60001,-3.9 30.40001,-9.5 0.5,-0.3 0.9,-0.6 1.3,-0.9 l 0,5.9 c -0.1,4.7 -11.7,9.9 -28.20001,9.9 z m 33.10001,-92.300005 c 0,0.1 0,0.2 -0.1,0.3 -0.6,2.1 -3.7,4 -8.5,5 -5.7,1.2 -13.1,1.2 -20.7,0 -16.40001,-2.6 -27.00001,-9.5 -26.20001,-14.1 0,0 0,0 0,0 0,0 0,0 0,0 0.1,-0.3 0.2,-0.6 0.3,-1 1,-1.8 3.9,-3.4 8.2,-4.3 2.9,-0.5999996 6.2,-0.8999996 9.7,-0.8999996 3.5,0 7.2,0.3 11.00001,0.8999996 16.4,2.6 27,9.5 26.3,14.1 z m -43.70001,18.1 c 1.5,0.5 3,0.9 4.6,1.4 0.2,0 0.4,0.1 0.5,0.1 2.2,0.5 4.4,1 6.8,1.4 3.10001,0.5 6.10001,0.8 8.90001,0.9 -0.2,0.2 -0.4,0.5 -0.6,0.7 -3.6,3.6 -13.60001,6.8 -26.60001,6.8 -4.9,0 -9.4,-0.5 -13.3,-1.2 -0.7,-0.1 -1.3,-0.3 -2,-0.4 -0.6,-0.1 -1.2,-0.3 -1.8,-0.5 -6.9,-1.9 -10.9999997,-4.9 -10.9999997,-7.7 0,-0.3 0.1,-0.7 0.2,-1 1.1999997,-3.6 8.8999997,-7.2 19.9999997,-8.4 3.1,3 8,5.8 14.3,7.9 z m -34.3999997,7.8 c 2.2999997,1.9 5.6999997,3.5 9.7999997,4.7 0,0 0,0 0,0 0.6,0.2 1.1,0.3 1.7,0.5 0,0 0,0 0,0 0.6,0.1 1.2,0.3 1.8,0.4 0,0 0,0 0,0 4.4,0.9 9.4,1.4 14.8,1.4 0.8,0 1.6,0 2.4,0 5.6,-0.2 10.6,-0.9 15,-2 0.7,-0.2 1.4,-0.4 2,-0.6 3.60001,-1.2 6.60001,-2.6 8.70001,-4.4 l 0,4.6 0,0.6 0,0.8 c 0,0.1 0,0.3 0,0.4 -0.1,0.6 -0.3,1.1 -0.8,1.7 -2.1,2.900004 -8.10001,5.600003 -16.70001,6.900003 -3,0.5 -6.3,0.7 -9.8,0.8 -0.3,0 -0.5,0 -0.8,0 -1.9,0 -3.8,-0.1 -5.6,-0.2 -0.7,0 -1.3,-0.1 -2,-0.2 -0.1,0 -0.1,0 -0.2,0 -0.6,-0.1 -1.1,-0.1 -1.6,-0.2 -1.9,-0.3 -3.7,-0.6 -5.4,-1 -0.6,-0.1 -1.2,-0.3 -1.8,-0.4 -0.6,-0.2 -1.2,-0.3 -1.8,-0.5 -6.1,-1.899999 -9.7999997,-4.700003 -9.7999997,-7.300003 l 0,-6 z M 27.786668,69.149518 c 0,0 0.1,0 0,0 0.6,0.1 1.2,0.2 1.8,0.2 0.1,0 0.1,0 0.2,0 0.5,0.1 1.1,0.1 1.6,0.1 0.1,0 0.2,0 0.3,0 1.9,0.1 3.9,0.2 6,0.2 3.9,0 7.5,-0.3 10.9,-0.8 0.8,0 1.6,0 2.4,0 4.8,0 9.30001,-0.4 13.30001,-1.2 6.4,-1.2 11.6,-3.2 14.8,-5.899999 l 0,6.199999 c 0,0.1 0,0.2 0,0.2 -0.2,2.4 -3.6,5 -9.1,6.8 -1,0.3 -2.2,0.7 -3.3,1 -1.4,0.3 -2.9,0.7 -4.5,0.9 -2.6,0.4 -5.40001,0.7 -8.50001,0.8 -0.9,0 -1.8,0 -2.7,0 -3.9,0 -7.6,-0.3 -10.9,-0.8 -0.1,0 -0.2,0 -0.3,0 -1.6,-0.3 -3.1,-0.6 -4.5,-0.9 -1.1,-0.3 -2.2,-0.6 -3.2,-0.9 0,0 -0.1,0 -0.1,0 -0.2,-0.1 -0.5,-0.2 -0.7,-0.2 -0.6,-0.2 -1.2,-0.5 -1.8,-0.7 -0.6,-0.3 -1.2,-0.5 -1.8,-0.8 -2.9,-1.5 -4.7,-3.3 -4.9,-5 1.7,0.3 3.3,0.5 5,0.8 z m 0,11.400001 c 0,1.6 0.7,3.1 1.8,4.5 0.3,0.3 0.5,0.6 0.9,0.9 0.4,0.4 0.9,0.9 1.5,1.3 0.5,0.4 1.1,0.8 1.8,1.2 5.6,3.3 14.9,5.4 25.70001,5.4 3.6,0 7,-0.2 10.1,-0.6 -1.8,0.6 -3.9,1.1 -6.1,1.5 -3.7,0.7 -7.90001,1.1 -12.40001,1.1 -5.9,0 -11.1,-0.7 -15.4,-1.7 -2.9,-0.7 -5.3,-1.6 -7.3,-2.5 -0.6,-0.3 -1.1,-0.6 -1.6,-0.9 -0.5,-0.3 -1,-0.7 -1.5,-1 -1.5,-1.2 -2.3,-2.5 -2.3,-3.7 0,-0.3 0.1,-0.7 0.2,-1 0.4,-1.7 2.1,-3.2 4.6,-4.5 z m -4.9,14.2 0,-1 0,-1.5 c 0.1,0.1 0.3,0.2 0.4,0.3 0.5,0.4 1,0.7 1.5,1 0.1,0.1 0.2,0.1 0.3,0.2 0,0 0,0 0,0 0.4,0.3 0.9,0.5 1.3,0.7 0,0 0,0 0,0 5.7,2.9 14.4,4.7 24.5,4.7 9.70001,0 18.10001,-1.7 23.80001,-4.4 1.7,-0.8 3.1,-1.7 4.3,-2.7 l 0,2.8 0,3.2 c 0,0.5 -0.1,0.9 -0.3,1.4 -0.6,1.400001 -2.2,2.700001 -4.6,3.900001 -4.9,2.5 -13.1,4.5 -23.20001,4.5 -0.7,0 -1.4,0 -2.1,0 -10.1,-0.3 -18.1,-2.5 -22.4,-5.2 -0.7,-0.4 -1.3,-0.9 -1.8,-1.3 -1.2,-1.1 -1.8,-2.200001 -1.8,-3.200001 l 0,-3.4 z m 59.80001,-9 c -0.3,0.2 -0.6,0.3 -0.9,0.4 -0.3,0.1 -0.6,0.3 -0.9,0.4 0,0 0,0 -0.1,0 -0.2,0.1 -0.3,0.1 -0.5,0.2 -0.4,0.2 -0.8,0.3 -1.2,0.4 -0.1,0 -0.3,0.1 -0.4,0.1 -0.2,0.1 -0.4,0.1 -0.7,0.2 -0.8,0.3 -1.7,0.5 -2.6,0.8 -4.4,1.1 -9.9,1.8 -16,1.8 -8.60001,0 -15.90001,-1.4 -20.90001,-3.4 -0.9,-0.4 -1.7,-0.7 -2.5,-1.1 -0.3,-0.2 -0.6,-0.3 -0.9,-0.5 -0.4,-0.2 -0.7,-0.5 -1.1,-0.7 -1.8,-1.3 -2.8,-2.7 -2.8,-3.999999 l 0,-1.400002 0,-0.5 c 0.2,0.1 0.5,0.1 0.7,0.2 5.2,1.600002 11.7,2.500001 19,2.500001 0.9,0 1.7,0 2.6,0 1.9,0.1 3.8,0.2 5.80001,0.2 5.1,0 9.9,-0.5 14.1,-1.299999 0.9,-0.2 1.8,-0.4 2.6,-0.6 0.8,-0.2 1.5,-0.4 2.3,-0.600002 3.8,-1.2 7,-2.7 9.2,-4.5 l 0,5.900002 c 0.1,1.899999 -1.7,3.799999 -4.8,5.499999 z m 4.8,-17.400001 c -0.2,2.6 -4,5.3 -10.2,7.2 3.2,-2 5.1,-4.5 5.3,-7.3 0,-0.1 0,-0.2 0,-0.3 l 0,-5.2 c 3.1,1.6 4.9,3.5 4.9,5.3 0.1,0.1 0,0.2 0,0.3 z m -8.4,-12.400003 c 0,0.5 -0.2,0.9 -0.5,1.4 -0.3,0.5 -0.7,1 -1.2,1.5 -0.5,0.5 -1.1,0.9 -1.8,1.3 -2.7,1.700004 -7,3.300003 -12.3,4.200003 2.8,-1.6 4.7,-3.500003 5.5,-5.500003 0.2,-0.6 0.4,-1.1 0.5,-1.7 0,-0.3 0.1,-0.5 0.1,-0.8 l 0,-0.7 0,-0.3 0,-7 c 6.1,1.9 9.8,4.7 9.8,7.3 -0.1,0.1 -0.1,0.2 -0.1,0.3 z m -9.9,-13.1 c -0.6,0 -1.2,0 -1.8,0 -0.6,0 -1.2,0 -1.9,0 -2.8,-0.1 -5.8,-0.4 -9.00001,-0.9 -9.6,-1.5 -17.2,-4.5 -21.7,-7.6 -0.8,-0.6 -1.5,-1.1 -2.1,-1.7 -0.6,-0.6 -1.1,-1.1 -1.5,-1.7 -0.8,-1.1 -1.1,-2.1 -1,-3.1 l 0.9,-5.9 c 3.5,3.9 10.2,7.4 18.9,9.7 1.8,0.5 3.6,0.9 5.6,1.2 0.7,0.1 1.4,0.3 2.20001,0.4 4,0.6 7.9,0.9 11.5,0.9 3.8,0 7.4,-0.3 10.5,-1 2.7,-0.6 5,-1.4 6.8,-2.5 l -0.9,5.9 c -0.4,3.4 -6.8,6 -16.5,6.3 z"
     id="path4"
     inkscape:connector-curvature="0"
     style="fill:#ffffff;fill-opacity:1" /></svg>