<?xml version="1.0" encoding="UTF-8" standalone="no"?>
<svg
   xmlns:dc="http://purl.org/dc/elements/1.1/"
   xmlns:cc="http://creativecommons.org/ns#"
   xmlns:rdf="http://www.w3.org/1999/02/22-rdf-syntax-ns#"
   xmlns:svg="http://www.w3.org/2000/svg"
   xmlns="http://www.w3.org/2000/svg"
   xmlns:sodipodi="http://sodipodi.sourceforge.net/DTD/sodipodi-0.dtd"
   xmlns:inkscape="http://www.inkscape.org/namespaces/inkscape"
   viewBox="0 0 100.58813 97.05701"
   version="1.1"
   x="0px"
   y="0px"
   id="svg2"
   inkscape:version="0.91 r13725"
   sodipodi:docname="quarters.svg"
   width="100.58813"
   height="97.057007">
  <metadata
     id="metadata20">
    <rdf:RDF>
      <cc:Work
         rdf:about="">
        <dc:format>image/svg+xml</dc:format>
        <dc:type
           rdf:resource="http://purl.org/dc/dcmitype/StillImage" />
        <dc:title>i10 copy 2</dc:title>
      </cc:Work>
    </rdf:RDF>
  </metadata>
  <defs
     id="defs18">
    <filter
       inkscape:collect="always"
       style="color-interpolation-filters:sRGB"
       id="filter4160"
       x="-0.058822956"
       width="1.1176459"
       y="-0.061225109"
       height="1.1224502">
      <feGaussianBlur
         inkscape:collect="always"
         stdDeviation="2.2058609"
         id="feGaussianBlur4162" />
    </filter>
  </defs>
  <sodipodi:namedview
     pagecolor="#000000"
     bordercolor="#666666"
     borderopacity="1"
     objecttolerance="10"
     gridtolerance="10"
     guidetolerance="10"
     inkscape:pageopacity="1"
     inkscape:pageshadow="2"
     inkscape:window-width="1043"
     inkscape:window-height="546"
     id="namedview16"
     showgrid="false"
     fit-margin-top="0"
     fit-margin-left="0"
     fit-margin-right="0"
     fit-margin-bottom="0"
     inkscape:zoom="1.888"
     inkscape:cx="61.416945"
     inkscape:cy="55.330734"
     inkscape:window-x="0"
     inkscape:window-y="0"
     inkscape:window-maximized="0"
     inkscape:current-layer="svg2"
     inkscape:snap-bbox="true"
     inkscape:snap-bbox-midpoints="true" />
  <title
     id="title4">i10 copy 2</title>
  <desc
     id="desc6">Created with Sketch.</desc>
  <g
     transform="translate(0.29406603,-1.705934)"
     style="fill:none;fill-rule:evenodd;stroke:none;stroke-width:1"
     id="g4136">
    <path
       style="fill:#ffffe6;fill-opacity:1;filter:url(#filter4160)"
       inkscape:connector-curvature="0"
       id="path4138"
       d="m 81.477316,71.03119 c -3.022384,1.848175 -6.550608,3.283386 -10.399823,4.263455 4.516893,-3.931014 6.952518,-8.681052 6.952518,-13.72097 l 0,-1.489659 c 0.64045,-0.340877 1.270928,-0.691723 1.877629,-1.062892 3.583064,-2.190585 6.361924,-4.772278 8.245689,-7.607423 1.470732,2.147256 2.24464,4.443287 2.24464,6.788398 0,4.756173 -3.168115,9.312192 -8.920653,12.829091 l 0,0 0,0 z m 8.920653,-0.781831 c 0,3.774953 -2.002267,7.421455 -5.701916,10.525008 l 0,-6.335174 c 2.253845,-1.467036 4.162537,-3.0955 5.701916,-4.847815 l 0,0.657981 0,0 z m -7.235926,11.709833 c -0.536137,0.382672 -1.093366,0.757675 -1.684727,1.119258 -1.652896,1.010361 -3.460727,1.89342 -5.385527,2.650711 l 0,-7.146913 c 2.531117,-0.878458 4.903464,-1.951703 7.070254,-3.208232 l 0,6.585176 0,0 z M 74.557779,86.2955 c -2.228917,0.772629 -4.598579,1.378846 -7.070637,1.80753 l 0,-7.383878 c 2.447513,-0.388424 4.813341,-0.937891 7.070637,-1.6346 l 0,7.210948 0,0 z M 66.192054,73.283509 c -0.536137,0.382672 -1.093366,0.757675 -1.684727,1.119257 -1.652896,1.010745 -3.460727,1.893804 -5.385527,2.650712 l 0,-7.146913 c 2.531117,-0.878458 4.903464,-1.951703 7.070254,-3.208232 l 0,6.585176 0,0 z m -0.238922,15.061087 c -2.291045,0.324006 -4.657639,0.499621 -7.06987,0.516876 l 0,-6.824825 c 0.612453,-0.208591 1.214936,-0.429451 1.808214,-0.660665 1.781753,-0.06672 3.538579,-0.213192 5.261656,-0.43712 l 0,7.405734 0,0 z m -11.040656,-27.465712 0,-7.445995 c 2.401493,-0.0161 4.766554,-0.177532 7.070254,-0.476998 l 0,7.406118 c -2.291428,0.324006 -4.658023,0.499621 -7.070254,0.516875 l 0,0 0,0 z m -13.397662,7.26578 c -8.720849,0 -16.886769,-2.055998 -22.992513,-5.789157 -5.752539,-3.5169 -8.9202701,-8.072918 -8.9202701,-12.829091 0,-4.607399 2.9809651,-9.024613 8.3971721,-12.493966 l 0,5.234322 c 0,6.419146 3.949693,12.369348 11.121575,16.754352 6.818675,4.169129 15.836738,6.46516 25.393239,6.46516 1.229126,0 2.448664,-0.0395 3.656313,-0.114649 -4.969042,1.80753 -10.681697,2.773029 -16.655516,2.773029 l 0,0 0,0 z m 16.072976,9.475153 c -2.228917,0.773012 -4.598579,1.379229 -7.070637,1.807913 l 0,-7.384262 c 2.447514,-0.388423 4.813341,-0.937891 7.070637,-1.634599 l 0,7.210948 0,0 z m -0.238539,11.230918 c -2.416066,-0.04985 -4.783427,-0.255753 -7.070253,-0.613885 l 0,-4.105478 c 2.44598,-0.377303 4.81104,-0.917185 7.070253,-1.60124 l 0,6.320603 0,0 z m -8.366108,-9.181822 c -2.291044,0.324389 -4.657639,0.499621 -7.06987,0.517259 l 0,-7.445996 c 2.401493,-0.0161 4.76617,-0.177532 7.06987,-0.476997 l 0,7.405734 0,0 z m -0.238155,8.302598 c -2.478194,-0.468946 -4.849774,-1.116574 -7.070254,-1.934832 l 0,-1.245792 c 2.400343,-0.0065 4.765403,-0.15836 7.070254,-0.447857 l 0,3.628481 0,0 z m -8.365725,-7.796459 c -2.416066,-0.04946 -4.783428,-0.255754 -7.070254,-0.613885 l 0,-7.399983 c 2.300632,0.330524 4.665693,0.52186 7.070254,0.567873 l 0,7.445995 0,0 z m -8.604264,-0.879225 c -2.478194,-0.468945 -4.849774,-1.11619 -7.070253,-1.934448 l 0,-7.180272 c 2.250009,0.735052 4.619672,1.313277 7.070253,1.736977 l 0,7.377743 0,0 z M 23.170735,76.755929 C 21.520907,76.06689 19.962736,75.283142 18.522301,74.402766 17.6529,73.870937 16.849846,73.313034 16.100482,72.736725 l 0,-6.468993 c 0.0069,0.0046 0.01381,0.0088 0.02109,0.01342 2.148381,1.313661 4.515742,2.440204 7.04916,3.368509 l 0,7.106268 0,0 z M 14.566472,71.45489 C 11.33853,68.495894 9.6020309,65.090191 9.6020309,61.573675 l 0,-0.65798 c 1.3683371,1.557911 3.0289031,3.017279 4.9644411,4.352795 l 0,6.1864 0,0 z m 8.034762,-29.846099 c 1.368337,1.557528 3.029287,3.017279 4.964441,4.352796 l 0,6.186016 C 24.337734,49.18899 22.601234,45.782904 22.601234,42.266772 l 0,-0.657981 0,0 z m 13.568704,8.733966 0,7.106269 c -1.649444,-0.68904 -3.207999,-1.472788 -4.648051,-2.353547 -0.869784,-0.531446 -1.672454,-1.089349 -2.422202,-1.665657 l 0,-6.468994 c 0.0073,0.0042 0.01381,0.0088 0.02109,0.01304 2.148381,1.31366 4.516126,2.440203 7.04916,3.368892 l 0,0 0,0 z m 8.604264,2.268039 0,7.378127 c -2.47781,-0.468945 -4.849773,-1.116573 -7.070253,-1.934831 l 0,-7.180273 c 2.250393,0.735052 4.619672,1.313661 7.070253,1.736977 l 0,0 0,0 z m 8.604264,0.810973 0,7.446379 c -2.415683,-0.04985 -4.783428,-0.255753 -7.070253,-0.614269 l 0,-7.399599 c 2.300631,0.330524 4.665692,0.521477 7.070253,0.567489 l 0,0 0,0 z m 18.742538,4.324805 0,-7.147297 c 2.531117,-0.878458 4.903463,-1.951703 7.070253,-3.207848 l 0,6.584793 c -0.536137,0.382671 -1.092982,0.757674 -1.684727,1.119257 -1.652512,1.010744 -3.460727,1.893804 -5.385526,2.651095 l 0,0 0,0 z m -8.604264,2.373869 0,-7.384262 c 2.447513,-0.38804 4.813341,-0.937508 7.070253,-1.634216 l 0,7.210948 c -2.228917,0.772629 -4.598195,1.378845 -7.070253,1.80753 l 0,0 0,0 z m 4.209324,5.643067 c 1.3971,-0.909517 2.661892,-1.88115 3.788238,-2.905699 0.64045,-0.212425 1.26786,-0.440187 1.888367,-0.677152 -0.202106,3.557927 -2.175993,6.981268 -5.676605,9.918024 l 0,-6.335173 0,0 z m 18.701119,-24.154719 0,0.657981 c 0,3.77457 -2.002266,7.421455 -5.701916,10.524624 l 0,-6.335173 c 2.253845,-1.467037 4.162537,-3.095501 5.701916,-4.847432 l 0,0 0,0 z M 31.521887,17.390421 c 6.105745,-3.733159 14.271281,-5.789157 22.99213,-5.789157 8.721232,0 16.887152,2.055998 22.992513,5.789157 5.752539,3.516899 8.920653,8.073301 8.920653,12.829091 0,4.75579 -3.168114,9.312191 -8.920653,12.829091 -6.105361,3.733159 -14.271281,5.789157 -22.992513,5.789157 -8.720849,0 -16.886385,-2.055998 -22.99213,-5.789157 -5.752538,-3.5169 -8.920653,-8.073301 -8.920653,-12.829091 0,-4.75579 3.168115,-9.312192 8.920653,-12.829091 l 0,0 0,0 z m 58.838499,29.380605 c 0.441028,-1.464736 0.668828,-2.970883 0.668828,-4.504254 l 0,-12.04726 c 0,-6.41953 -3.949693,-12.369731 -11.121574,-16.754353 C 73.088964,9.2960308 64.070901,7 54.514017,7 44.957516,7 35.939453,9.2960308 29.120778,13.465159 22.234989,17.674932 18.300636,23.327969 17.999203,29.453785 l 0,2.255386 c -0.640449,0.341261 -1.270927,0.691724 -1.877628,1.062892 C 9.2357859,36.981836 5.301433,42.635256 5,48.761072 l 0,12.812603 c 0,6.419531 3.949693,12.369732 11.121575,16.754737 3.480669,2.128084 7.536976,3.764984 11.94342,4.860468 1.438902,1.368493 3.117109,2.647644 5.026568,3.815215 6.818293,4.168745 15.836739,6.464776 25.39324,6.464776 9.556884,0 18.574947,-2.296031 25.393622,-6.464776 C 91.049924,82.61909 95,76.668889 95,70.249359 l 0,-12.04726 C 95,54.10544 93.388906,50.200884 90.360386,46.771026 l 0,0 0,0 z" />
  </g>
  <g
     id="g8"
     style="fill:none;fill-rule:evenodd;stroke:none;stroke-width:1"
     transform="translate(0.29406403,-1.705933)">
    <path
       d="m 81.477316,71.03119 c -3.022384,1.848175 -6.550608,3.283386 -10.399823,4.263455 4.516893,-3.931014 6.952518,-8.681052 6.952518,-13.72097 l 0,-1.489659 c 0.64045,-0.340877 1.270928,-0.691723 1.877629,-1.062892 3.583064,-2.190585 6.361924,-4.772278 8.245689,-7.607423 1.470732,2.147256 2.24464,4.443287 2.24464,6.788398 0,4.756173 -3.168115,9.312192 -8.920653,12.829091 l 0,0 0,0 z m 8.920653,-0.781831 c 0,3.774953 -2.002267,7.421455 -5.701916,10.525008 l 0,-6.335174 c 2.253845,-1.467036 4.162537,-3.0955 5.701916,-4.847815 l 0,0.657981 0,0 z m -7.235926,11.709833 c -0.536137,0.382672 -1.093366,0.757675 -1.684727,1.119258 -1.652896,1.010361 -3.460727,1.89342 -5.385527,2.650711 l 0,-7.146913 c 2.531117,-0.878458 4.903464,-1.951703 7.070254,-3.208232 l 0,6.585176 0,0 z M 74.557779,86.2955 c -2.228917,0.772629 -4.598579,1.378846 -7.070637,1.80753 l 0,-7.383878 c 2.447513,-0.388424 4.813341,-0.937891 7.070637,-1.6346 l 0,7.210948 0,0 z M 66.192054,73.283509 c -0.536137,0.382672 -1.093366,0.757675 -1.684727,1.119257 -1.652896,1.010745 -3.460727,1.893804 -5.385527,2.650712 l 0,-7.146913 c 2.531117,-0.878458 4.903464,-1.951703 7.070254,-3.208232 l 0,6.585176 0,0 z m -0.238922,15.061087 c -2.291045,0.324006 -4.657639,0.499621 -7.06987,0.516876 l 0,-6.824825 c 0.612453,-0.208591 1.214936,-0.429451 1.808214,-0.660665 1.781753,-0.06672 3.538579,-0.213192 5.261656,-0.43712 l 0,7.405734 0,0 z m -11.040656,-27.465712 0,-7.445995 c 2.401493,-0.0161 4.766554,-0.177532 7.070254,-0.476998 l 0,7.406118 c -2.291428,0.324006 -4.658023,0.499621 -7.070254,0.516875 l 0,0 0,0 z m -13.397662,7.26578 c -8.720849,0 -16.886769,-2.055998 -22.992513,-5.789157 -5.752539,-3.5169 -8.9202701,-8.072918 -8.9202701,-12.829091 0,-4.607399 2.9809651,-9.024613 8.3971721,-12.493966 l 0,5.234322 c 0,6.419146 3.949693,12.369348 11.121575,16.754352 6.818675,4.169129 15.836738,6.46516 25.393239,6.46516 1.229126,0 2.448664,-0.0395 3.656313,-0.114649 -4.969042,1.80753 -10.681697,2.773029 -16.655516,2.773029 l 0,0 0,0 z m 16.072976,9.475153 c -2.228917,0.773012 -4.598579,1.379229 -7.070637,1.807913 l 0,-7.384262 c 2.447514,-0.388423 4.813341,-0.937891 7.070637,-1.634599 l 0,7.210948 0,0 z m -0.238539,11.230918 c -2.416066,-0.04985 -4.783427,-0.255753 -7.070253,-0.613885 l 0,-4.105478 c 2.44598,-0.377303 4.81104,-0.917185 7.070253,-1.60124 l 0,6.320603 0,0 z m -8.366108,-9.181822 c -2.291044,0.324389 -4.657639,0.499621 -7.06987,0.517259 l 0,-7.445996 c 2.401493,-0.0161 4.76617,-0.177532 7.06987,-0.476997 l 0,7.405734 0,0 z m -0.238155,8.302598 c -2.478194,-0.468946 -4.849774,-1.116574 -7.070254,-1.934832 l 0,-1.245792 c 2.400343,-0.0065 4.765403,-0.15836 7.070254,-0.447857 l 0,3.628481 0,0 z m -8.365725,-7.796459 c -2.416066,-0.04946 -4.783428,-0.255754 -7.070254,-0.613885 l 0,-7.399983 c 2.300632,0.330524 4.665693,0.52186 7.070254,0.567873 l 0,7.445995 0,0 z m -8.604264,-0.879225 c -2.478194,-0.468945 -4.849774,-1.11619 -7.070253,-1.934448 l 0,-7.180272 c 2.250009,0.735052 4.619672,1.313277 7.070253,1.736977 l 0,7.377743 0,0 z M 23.170735,76.755929 C 21.520907,76.06689 19.962736,75.283142 18.522301,74.402766 17.6529,73.870937 16.849846,73.313034 16.100482,72.736725 l 0,-6.468993 c 0.0069,0.0046 0.01381,0.0088 0.02109,0.01342 2.148381,1.313661 4.515742,2.440204 7.04916,3.368509 l 0,7.106268 0,0 z M 14.566472,71.45489 C 11.33853,68.495894 9.6020309,65.090191 9.6020309,61.573675 l 0,-0.65798 c 1.3683371,1.557911 3.0289031,3.017279 4.9644411,4.352795 l 0,6.1864 0,0 z m 8.034762,-29.846099 c 1.368337,1.557528 3.029287,3.017279 4.964441,4.352796 l 0,6.186016 C 24.337734,49.18899 22.601234,45.782904 22.601234,42.266772 l 0,-0.657981 0,0 z m 13.568704,8.733966 0,7.106269 c -1.649444,-0.68904 -3.207999,-1.472788 -4.648051,-2.353547 -0.869784,-0.531446 -1.672454,-1.089349 -2.422202,-1.665657 l 0,-6.468994 c 0.0073,0.0042 0.01381,0.0088 0.02109,0.01304 2.148381,1.31366 4.516126,2.440203 7.04916,3.368892 l 0,0 0,0 z m 8.604264,2.268039 0,7.378127 c -2.47781,-0.468945 -4.849773,-1.116573 -7.070253,-1.934831 l 0,-7.180273 c 2.250393,0.735052 4.619672,1.313661 7.070253,1.736977 l 0,0 0,0 z m 8.604264,0.810973 0,7.446379 c -2.415683,-0.04985 -4.783428,-0.255753 -7.070253,-0.614269 l 0,-7.399599 c 2.300631,0.330524 4.665692,0.521477 7.070253,0.567489 l 0,0 0,0 z m 18.742538,4.324805 0,-7.147297 c 2.531117,-0.878458 4.903463,-1.951703 7.070253,-3.207848 l 0,6.584793 c -0.536137,0.382671 -1.092982,0.757674 -1.684727,1.119257 -1.652512,1.010744 -3.460727,1.893804 -5.385526,2.651095 l 0,0 0,0 z m -8.604264,2.373869 0,-7.384262 c 2.447513,-0.38804 4.813341,-0.937508 7.070253,-1.634216 l 0,7.210948 c -2.228917,0.772629 -4.598195,1.378845 -7.070253,1.80753 l 0,0 0,0 z m 4.209324,5.643067 c 1.3971,-0.909517 2.661892,-1.88115 3.788238,-2.905699 0.64045,-0.212425 1.26786,-0.440187 1.888367,-0.677152 -0.202106,3.557927 -2.175993,6.981268 -5.676605,9.918024 l 0,-6.335173 0,0 z m 18.701119,-24.154719 0,0.657981 c 0,3.77457 -2.002266,7.421455 -5.701916,10.524624 l 0,-6.335173 c 2.253845,-1.467037 4.162537,-3.095501 5.701916,-4.847432 l 0,0 0,0 z M 31.521887,17.390421 c 6.105745,-3.733159 14.271281,-5.789157 22.99213,-5.789157 8.721232,0 16.887152,2.055998 22.992513,5.789157 5.752539,3.516899 8.920653,8.073301 8.920653,12.829091 0,4.75579 -3.168114,9.312191 -8.920653,12.829091 -6.105361,3.733159 -14.271281,5.789157 -22.992513,5.789157 -8.720849,0 -16.886385,-2.055998 -22.99213,-5.789157 -5.752538,-3.5169 -8.920653,-8.073301 -8.920653,-12.829091 0,-4.75579 3.168115,-9.312192 8.920653,-12.829091 l 0,0 0,0 z m 58.838499,29.380605 c 0.441028,-1.464736 0.668828,-2.970883 0.668828,-4.504254 l 0,-12.04726 c 0,-6.41953 -3.949693,-12.369731 -11.121574,-16.754353 C 73.088964,9.2960308 64.070901,7 54.514017,7 44.957516,7 35.939453,9.2960308 29.120778,13.465159 22.234989,17.674932 18.300636,23.327969 17.999203,29.453785 l 0,2.255386 c -0.640449,0.341261 -1.270927,0.691724 -1.877628,1.062892 C 9.2357859,36.981836 5.301433,42.635256 5,48.761072 l 0,12.812603 c 0,6.419531 3.949693,12.369732 11.121575,16.754737 3.480669,2.128084 7.536976,3.764984 11.94342,4.860468 1.438902,1.368493 3.117109,2.647644 5.026568,3.815215 6.818293,4.168745 15.836739,6.464776 25.39324,6.464776 9.556884,0 18.574947,-2.296031 25.393622,-6.464776 C 91.049924,82.61909 95,76.668889 95,70.249359 l 0,-12.04726 C 95,54.10544 93.388906,50.200884 90.360386,46.771026 l 0,0 0,0 z"
       id="path10"
       inkscape:connector-curvature="0"
       style="fill:#ffffff;fill-opacity:1" />
  </g>
</svg>
